<svg fill="none" height="22" viewBox="0 0 22 22" width="22" xmlns="http://www.w3.org/2000/svg"><path d="m15.1388 8.10383c1.1408-.75094 2.885-1.23592 5.5531-.85732.2797-1.94306-1.3545-3.67961-3.3124-3.44494-2.4324.29099-4.1829 1.27034-5.4022 2.47497.2734-1.33292 1.1628-2.90364 3.3218-4.51816-1.1817-1.57072-3.5701-1.648943-4.7895-.10325-1.51159 1.91802-2.05527 3.84231-2.06155 5.5507-.75424-1.1358-1.24135-2.87548-.86109-5.53193-1.9516-.27848-3.69578 1.34856-3.46008 3.29788.29227 2.42179 1.27592 4.1646 2.48585 5.37862-1.33878-.2722-2.91954-1.1577-4.53801-3.30727-1.57762 1.17647-1.656185 3.55447-.10685 4.76847 1.92645 1.505 3.85919 2.0463 5.57509 2.0557-1.14079.751-2.88497 1.2328-5.55624.8542-.27655 1.9368 1.34192 3.6702 3.29038 3.4512 2.85982-.3254 4.48144-1.5645 5.4305-2.5156-.264 1.3423-1.15019 2.9286-3.32806 4.5557 1.19422 1.5863 3.59836 1.6301 4.81776.0657 1.587-2.0338 2.0207-3.9957 2.0144-5.5445.7637 1.1358 1.2665 2.8818.8799 5.5632 1.9705.2816 3.7021-1.3798 3.4538-3.3448-.3205-2.5563-1.411-4.249-2.5172-5.3379 1.3482.2628 2.9415 1.1452 4.5757 3.3135 1.5776-1.1765 1.6562-3.5544.1068-4.7685-1.9264-1.50498-3.8592-2.04628-5.5751-2.05254z" fill="#ed731a"/></svg>